<?xml version="1.0" encoding="UTF-8" standalone="no"?>
<svg width="100%" height="100%" viewBox="0 0 32 32" version="1.1" xmlns="http://www.w3.org/2000/svg"
     xml:space="preserve"
     style="fill-rule:evenodd;clip-rule:evenodd;stroke-linecap:round;stroke-linejoin:round;stroke-miterlimit:1.5;"><path d="M1.5,12c0,0 6.221,-4 14.5,-4c8.279,0 14.489,4 14.489,4l-14.489,14.667l-14.5,-14.667Z" style="fill:#be1515;"/>
    <path d="M16.199,8.001l0.193,0.002l0.192,0.003l0.192,0.005l0.19,0.007l0.19,0.008l0.189,0.009l0.188,0.01l0.187,0.012l0.186,0.012l0.186,0.015l0.184,0.015l0.184,0.016l0.183,0.018l0.181,0.019l0.181,0.02l0.18,0.021l0.179,0.022l0.178,0.023l0.177,0.024l0.176,0.026l0.175,0.026l0.174,0.027l0.173,0.028l0.172,0.029l0.171,0.03l0.17,0.031l0.169,0.031l0.168,0.033l0.166,0.033l0.166,0.034l0.164,0.035l0.163,0.036l0.162,0.036l0.161,0.037l0.16,0.037l0.158,0.038l0.158,0.039l0.156,0.04l0.155,0.04l0.153,0.04l0.153,0.041l0.151,0.042l0.15,0.042l0.149,0.043l0.147,0.042l0.146,0.044l0.145,0.044l0.285,0.088l0.28,0.09l0.275,0.091l0.269,0.092l0.263,0.093l0.258,0.093l0.252,0.093l0.245,0.094l0.24,0.094l0.233,0.093l0.228,0.093l0.221,0.093l0.214,0.092l0.208,0.091l0.201,0.09l0.195,0.088l0.187,0.088l0.181,0.085l0.174,0.084l0.167,0.081l0.159,0.08l0.152,0.077l0.145,0.074l0.137,0.072l0.13,0.069l0.122,0.066l0.114,0.062l0.107,0.059l0.189,0.107l0.156,0.09l0.123,0.073l0.088,0.054l0.072,0.045l-14.5,14.667l-14.489,-14.667l0.072,-0.045l0.089,-0.054l0.122,-0.073l0.157,-0.09l0.188,-0.107l0.107,-0.059l0.114,-0.062l0.122,-0.066l0.13,-0.069l0.137,-0.072l0.145,-0.074l0.152,-0.077l0.159,-0.08l0.167,-0.081l0.174,-0.084l0.181,-0.085l0.187,-0.088l0.195,-0.088l0.201,-0.09l0.208,-0.091l0.215,-0.092l0.22,-0.093l0.228,-0.093l0.233,-0.093l0.24,-0.094l0.246,-0.094l0.251,-0.093l0.258,-0.093l0.263,-0.093l0.269,-0.092l0.275,-0.091l0.28,-0.09l0.285,-0.088l0.145,-0.044l0.146,-0.044l0.147,-0.042l0.149,-0.043l0.15,-0.042l0.151,-0.042l0.153,-0.041l0.153,-0.04l0.155,-0.04l0.156,-0.04l0.158,-0.039l0.158,-0.038l0.16,-0.037l0.161,-0.037l0.162,-0.036l0.163,-0.036l0.165,-0.035l0.165,-0.034l0.167,-0.033l0.167,-0.033l0.169,-0.031l0.17,-0.031l0.171,-0.03l0.172,-0.029l0.173,-0.028l0.174,-0.027l0.175,-0.026l0.176,-0.026l0.177,-0.024l0.178,-0.023l0.179,-0.022l0.18,-0.021l0.181,-0.02l0.182,-0.019l0.182,-0.018l0.184,-0.016l0.185,-0.015l0.185,-0.015l0.186,-0.012l0.187,-0.012l0.189,-0.01l0.188,-0.009l0.19,-0.008l0.191,-0.007l0.191,-0.005l0.192,-0.003l0.193,-0.002l0.194,-0.001l0.193,0.001Zm-0.38,1l-0.185,0.002l-0.185,0.003l-0.184,0.005l-0.183,0.006l-0.182,0.008l-0.182,0.008l-0.181,0.01l-0.18,0.011l-0.18,0.013l-0.178,0.013l-0.178,0.015l-0.177,0.016l-0.176,0.017l-0.175,0.018l-0.174,0.019l-0.174,0.021l-0.172,0.021l-0.172,0.022l-0.171,0.024l-0.169,0.024l-0.169,0.025l-0.168,0.027l-0.167,0.027l-0.166,0.028l-0.165,0.029l-0.164,0.029l-0.163,0.031l-0.162,0.031l-0.16,0.032l-0.16,0.033l-0.159,0.034l-0.158,0.034l-0.156,0.035l-0.156,0.036l-0.154,0.036l-0.153,0.037l-0.152,0.038l-0.151,0.038l-0.15,0.038l-0.149,0.04l-0.147,0.039l-0.146,0.04l-0.145,0.041l-0.144,0.041l-0.143,0.042l-0.141,0.042l-0.139,0.042l-0.277,0.086l-0.271,0.087l-0.266,0.088l-0.26,0.089l-0.255,0.089l-0.25,0.091l-0.243,0.09l-0.238,0.091l-0.232,0.091l-0.226,0.09l-0.22,0.09l-0.213,0.09l-0.208,0.089l-0.201,0.088l-0.194,0.086l-0.188,0.086l-0.181,0.084l-0.175,0.083l-0.167,0.08l-0.161,0.079l-0.153,0.076l-0.147,0.074l-0.139,0.072l-0.068,0.036l12.859,13.017l12.87,-13.017l-0.068,-0.036l-0.139,-0.072l-0.147,-0.074l-0.153,-0.076l-0.161,-0.079l-0.167,-0.08l-0.175,-0.083l-0.181,-0.084l-0.188,-0.086l-0.194,-0.086l-0.201,-0.088l-0.208,-0.089l-0.213,-0.09l-0.22,-0.09l-0.226,-0.09l-0.232,-0.091l-0.238,-0.091l-0.243,-0.09l-0.25,-0.091l-0.255,-0.089l-0.26,-0.089l-0.266,-0.088l-0.271,-0.087l-0.277,-0.086l-0.139,-0.042l-0.141,-0.042l-0.143,-0.042l-0.144,-0.041l-0.145,-0.041l-0.146,-0.04l-0.147,-0.039l-0.149,-0.04l-0.15,-0.038l-0.151,-0.038l-0.152,-0.038l-0.153,-0.037l-0.154,-0.036l-0.156,-0.036l-0.156,-0.035l-0.158,-0.034l-0.159,-0.034l-0.16,-0.033l-0.16,-0.032l-0.162,-0.031l-0.163,-0.031l-0.164,-0.029l-0.165,-0.029l-0.166,-0.028l-0.167,-0.027l-0.168,-0.027l-0.169,-0.025l-0.169,-0.024l-0.171,-0.024l-0.172,-0.022l-0.172,-0.021l-0.174,-0.021l-0.174,-0.019l-0.175,-0.018l-0.176,-0.017l-0.177,-0.016l-0.178,-0.015l-0.178,-0.013l-0.18,-0.013l-0.18,-0.011l-0.181,-0.01l-0.181,-0.008l-0.183,-0.008l-0.183,-0.006l-0.184,-0.005l-0.185,-0.003l-0.185,-0.002l-0.186,-0.001l-0.187,0.001Z"
          style="fill:#ccd7e4;"/>
    <path d="M1.511,12.204c0,0 6.21,-3.796 14.489,-3.796c8.279,0 14.489,3.796 14.489,3.796l-14.489,14.463l-14.489,-14.463Z"
          style="fill:none;stroke:#ccd7e4;stroke-width:1px;"/>
    <path d="M16.201,7.001l0.201,0.002l0.199,0.004l0.199,0.005l0.197,0.007l0.197,0.008l0.196,0.009l0.196,0.011l0.194,0.012l0.193,0.013l0.192,0.015l0.192,0.016l0.19,0.017l0.19,0.018l0.188,0.02l0.188,0.02l0.186,0.022l0.186,0.023l0.184,0.024l0.184,0.025l0.182,0.026l0.181,0.027l0.181,0.028l0.179,0.03l0.178,0.03l0.177,0.031l0.175,0.031l0.175,0.033l0.174,0.034l0.172,0.034l0.171,0.035l0.17,0.036l0.169,0.037l0.167,0.037l0.167,0.039l0.165,0.038l0.164,0.04l0.162,0.04l0.162,0.041l0.16,0.041l0.159,0.042l0.157,0.042l0.157,0.043l0.154,0.044l0.154,0.044l0.152,0.044l0.151,0.045l0.151,0.045l0.293,0.092l0.29,0.092l0.283,0.094l0.278,0.095l0.272,0.096l0.266,0.096l0.26,0.096l0.254,0.097l0.247,0.097l0.241,0.096l0.235,0.097l0.228,0.095l0.222,0.095l0.215,0.094l0.208,0.093l0.201,0.092l0.195,0.09l0.187,0.088l0.18,0.087l0.173,0.085l0.166,0.082l0.158,0.08l0.15,0.077l0.143,0.075l0.135,0.072l0.128,0.068l0.12,0.066l0.112,0.062l0.198,0.112l0.166,0.096l0.132,0.078l0.098,0.06l0.077,0.048l0.086,0.06l0.08,0.07l0.071,0.077l0.064,0.084l0.054,0.091l0.044,0.095l0.034,0.1l0.023,0.103l0.012,0.104l0.001,0.106l-0.01,0.105l-0.021,0.103l-0.031,0.1l-0.042,0.097l-0.052,0.092l-0.062,0.085l-0.07,0.079l-14.5,14.667l-0.078,0.071l-0.085,0.062l-0.091,0.053l-0.096,0.043l-0.1,0.033l-0.104,0.022l-0.104,0.011l-0.106,0l-0.105,-0.011l-0.103,-0.022l-0.1,-0.033l-0.096,-0.043l-0.091,-0.053l-0.085,-0.063l-0.078,-0.071l-14.489,-14.666l-0.07,-0.079l-0.062,-0.086l-0.051,-0.091l-0.043,-0.097l-0.031,-0.1l-0.021,-0.103l-0.01,-0.105l0.001,-0.105l0.012,-0.105l0.023,-0.103l0.034,-0.099l0.044,-0.096l0.054,-0.09l0.063,-0.085l0.072,-0.077l0.079,-0.069l0.087,-0.061l0.076,-0.048l0.099,-0.06l0.131,-0.078l0.166,-0.096l0.197,-0.112l0.113,-0.062l0.119,-0.065l0.128,-0.069l0.135,-0.072l0.142,-0.074l0.151,-0.078l0.158,-0.08l0.165,-0.082l0.173,-0.085l0.18,-0.086l0.187,-0.089l0.194,-0.09l0.201,-0.092l0.208,-0.093l0.214,-0.094l0.222,-0.095l0.228,-0.095l0.234,-0.096l0.241,-0.097l0.248,-0.097l0.253,-0.097l0.26,-0.096l0.265,-0.096l0.272,-0.096l0.278,-0.095l0.283,-0.094l0.289,-0.092l0.294,-0.091l0.15,-0.046l0.151,-0.045l0.152,-0.044l0.153,-0.044l0.155,-0.044l0.156,-0.042l0.158,-0.043l0.158,-0.042l0.16,-0.041l0.162,-0.041l0.162,-0.04l0.164,-0.04l0.165,-0.038l0.166,-0.039l0.168,-0.037l0.169,-0.037l0.169,-0.036l0.172,-0.035l0.172,-0.034l0.173,-0.034l0.175,-0.033l0.176,-0.031l0.176,-0.031l0.178,-0.03l0.179,-0.03l0.18,-0.028l0.182,-0.027l0.182,-0.026l0.183,-0.025l0.185,-0.024l0.185,-0.023l0.187,-0.022l0.187,-0.02l0.189,-0.02l0.189,-0.018l0.19,-0.017l0.192,-0.016l0.192,-0.015l0.193,-0.013l0.195,-0.012l0.195,-0.011l0.196,-0.009l0.197,-0.008l0.197,-0.007l0.199,-0.005l0.199,-0.004l0.201,-0.002l0.201,-0.001l0.201,0.001Zm-0.395,1l-0.193,0.002l-0.192,0.003l-0.191,0.005l-0.19,0.007l-0.19,0.008l-0.189,0.009l-0.188,0.01l-0.187,0.012l-0.186,0.012l-0.186,0.015l-0.184,0.015l-0.184,0.016l-0.183,0.018l-0.182,0.019l-0.18,0.02l-0.18,0.021l-0.179,0.022l-0.178,0.023l-0.177,0.024l-0.176,0.026l-0.175,0.026l-0.174,0.027l-0.173,0.028l-0.172,0.029l-0.171,0.03l-0.17,0.031l-0.169,0.031l-0.167,0.033l-0.167,0.033l-0.165,0.034l-0.164,0.035l-0.164,0.036l-0.162,0.036l-0.16,0.037l-0.16,0.037l-0.159,0.038l-0.157,0.039l-0.156,0.04l-0.155,0.04l-0.154,0.04l-0.152,0.041l-0.151,0.042l-0.15,0.042l-0.149,0.043l-0.147,0.042l-0.146,0.044l-0.144,0.044l-0.286,0.088l-0.28,0.09l-0.274,0.091l-0.269,0.092l-0.263,0.093l-0.258,0.093l-0.251,0.093l-0.246,0.094l-0.239,0.094l-0.234,0.093l-0.227,0.093l-0.221,0.093l-0.214,0.092l-0.208,0.091l-0.201,0.09l-0.194,0.088l-0.188,0.088l-0.181,0.085l-0.173,0.084l-0.167,0.081l-0.159,0.08l-0.152,0.077l-0.145,0.074l-0.137,0.072l-0.13,0.069l-0.122,0.066l-0.114,0.062l-0.106,0.059l-0.189,0.107l-0.156,0.09l-0.123,0.073l-0.088,0.054l-0.072,0.045l14.489,14.667l14.5,-14.667l-0.072,-0.045l-0.089,-0.054l-0.122,-0.073l-0.157,-0.09l-0.189,-0.107l-0.106,-0.059l-0.115,-0.062l-0.122,-0.066l-0.129,-0.069l-0.138,-0.072l-0.145,-0.074l-0.152,-0.077l-0.16,-0.08l-0.166,-0.081l-0.174,-0.084l-0.181,-0.085l-0.188,-0.088l-0.195,-0.088l-0.201,-0.09l-0.208,-0.091l-0.215,-0.092l-0.221,-0.093l-0.227,-0.093l-0.234,-0.093l-0.239,-0.094l-0.246,-0.094l-0.252,-0.093l-0.258,-0.093l-0.263,-0.093l-0.269,-0.092l-0.275,-0.091l-0.28,-0.09l-0.286,-0.088l-0.145,-0.044l-0.146,-0.044l-0.147,-0.042l-0.149,-0.043l-0.15,-0.042l-0.151,-0.042l-0.153,-0.041l-0.154,-0.04l-0.155,-0.04l-0.156,-0.04l-0.157,-0.039l-0.159,-0.038l-0.159,-0.037l-0.161,-0.037l-0.163,-0.036l-0.163,-0.036l-0.164,-0.035l-0.166,-0.034l-0.166,-0.033l-0.168,-0.033l-0.169,-0.031l-0.17,-0.031l-0.171,-0.03l-0.172,-0.029l-0.173,-0.028l-0.174,-0.027l-0.175,-0.026l-0.176,-0.026l-0.177,-0.024l-0.178,-0.023l-0.179,-0.022l-0.18,-0.021l-0.181,-0.02l-0.182,-0.019l-0.183,-0.018l-0.183,-0.016l-0.185,-0.015l-0.185,-0.015l-0.187,-0.012l-0.187,-0.012l-0.188,-0.01l-0.189,-0.009l-0.19,-0.008l-0.19,-0.007l-0.191,-0.005l-0.192,-0.003l-0.193,-0.002l-0.194,-0.001l-0.194,0.001Z"
          style="fill:#425f80;"/>
    <path d="M20.091,14c-2.372,-0.657 0,5.333 0,5.333" style="fill:none;stroke:#fff;stroke-width:0.5px;"/>
    <path d="M30.489,12.204l-0.853,1.129l-13.636,2l-13.636,-2l-0.853,-1.129c-0.339,1.238 -0.511,2.514 -0.511,3.796c0,8.095 6.721,14.667 15,14.667c8.279,0 15,-6.572 15,-14.667c0,-1.282 -0.172,-2.558 -0.511,-3.796Z"
          style="fill:#ccd7e4;"/>
    <path d="M1.682,18c0,0 6.137,5.5 14.318,5.5c8.181,0 14.318,-4.5 14.318,-4.5"
          style="fill:none;stroke:#819cbc;stroke-width:1px;"/>
    <path d="M1.682,18c0,0 6.137,5.333 14.318,5.333c8.181,0 14.318,-5.333 14.318,-5.333"
          style="fill:none;stroke:#819cbc;stroke-width:1px;"/>
    <path d="M1.682,18c0,0 6.137,4.5 14.318,4.5c8.181,0 14.318,-5.5 14.318,-5.5"
          style="fill:none;stroke:#819cbc;stroke-width:1px;"/>
    <path d="M1.682,18c0,0 6.137,4.333 14.318,4.333c8.181,0 14.318,-6.333 14.318,-6.333"
          style="fill:none;stroke:#819cbc;stroke-width:1px;"/>
    <path d="M1.682,18c0,0 6.137,3.5 14.318,3.5c8.181,0 14.318,-6.5 14.318,-6.5"
          style="fill:none;stroke:#819cbc;stroke-width:1px;"/>
    <path d="M1.511,12c-0.339,1.207 -0.511,2.451 -0.511,3.701c0,7.892 6.721,14.299 15,14.299c8.279,0 15,-6.407 15,-14.299c0,-1.25 -0.172,-2.494 -0.511,-3.701"
          style="fill:none;stroke:#425f80;stroke-width:2px;"/>
    <path d="M1,14c0,8.008 6.716,14.5 15,14.5c8.284,0 15,-6.492 15,-14.5"
          style="fill:none;stroke:#425f80;stroke-width:1.5px;"/>
    <path d="M1.511,12c0,0 6.21,4 14.489,4c8.279,0 14.489,-4 14.489,-4"
          style="fill:none;stroke:#425f80;stroke-width:2px;"/>
    <path d="M24.029,29.121l-0.862,-0.424l-2.571,-7.595l0.433,-0.842l5.179,-1.676l0.861,0.424l2.571,7.594l-0.433,0.843l-5.178,1.676Z"
          style="fill:#be1515;stroke:#fff;stroke-width:0.5px;"/>
    <path d="M27.069,19.008l2.571,7.594l-0.433,0.843l-5.178,1.676l-0.862,-0.424l-2.571,-7.595l0.433,-0.842l5.179,-1.676l0.861,0.424Zm-5.339,2.076l-0.051,0.099l2.302,6.8l0.125,0.061l4.401,-1.424l0.05,-0.098l-2.302,-6.8l-0.125,-0.062l-4.4,1.424Z"
          style="fill:#fff;"/>
    <path d="M26.279,17.587l0.064,0.006l0.063,0.011l0.063,0.015l0.061,0.019l0.06,0.022l0.059,0.027l0.861,0.423l0.054,0.028l0.051,0.032l0.05,0.035l0.048,0.037l0.045,0.041l0.043,0.043l0.039,0.045l0.038,0.048l0.034,0.05l0.031,0.052l0.028,0.054l0.024,0.055l0.021,0.057l2.571,7.595l0.018,0.059l0.015,0.06l0.01,0.06l0.007,0.062l0.003,0.061l-0.001,0.062l-0.004,0.061l-0.009,0.061l-0.012,0.061l-0.016,0.059l-0.019,0.059l-0.023,0.057l-0.026,0.055l-0.433,0.843l-0.03,0.053l-0.032,0.05l-0.035,0.049l-0.038,0.047l-0.041,0.044l-0.044,0.042l-0.045,0.039l-0.049,0.036l-0.05,0.033l-0.052,0.03l-0.054,0.027l-0.055,0.024l-0.057,0.02l-5.178,1.676l-0.062,0.018l-0.062,0.014l-0.064,0.009l-0.064,0.006l-0.064,0.002l-0.064,-0.003l-0.064,-0.007l-0.063,-0.01l-0.062,-0.015l-0.062,-0.019l-0.06,-0.022l-0.058,-0.027l-0.862,-0.423l-0.053,-0.029l-0.052,-0.031l-0.05,-0.035l-0.047,-0.037l-0.045,-0.041l-0.043,-0.043l-0.04,-0.045l-0.037,-0.048l-0.034,-0.05l-0.031,-0.052l-0.028,-0.054l-0.025,-0.055l-0.021,-0.057l-2.571,-7.595l-0.018,-0.059l-0.014,-0.06l-0.011,-0.06l-0.006,-0.062l-0.003,-0.061l0,-0.062l0.005,-0.061l0.008,-0.061l0.012,-0.061l0.016,-0.059l0.02,-0.059l0.023,-0.057l0.026,-0.056l0.433,-0.842l0.029,-0.053l0.032,-0.051l0.036,-0.048l0.038,-0.047l0.041,-0.044l0.043,-0.042l0.046,-0.039l0.048,-0.036l0.05,-0.033l0.052,-0.03l0.054,-0.027l0.056,-0.024l0.056,-0.02l5.179,-1.676l0.061,-0.018l0.063,-0.014l0.063,-0.01l0.064,-0.005l0.064,-0.002l0.064,0.003Zm-5.25,2.673l-0.433,0.842l2.571,7.595l0.862,0.424l5.178,-1.676l0.433,-0.843l-2.571,-7.594l-0.861,-0.424l-5.179,1.676Z"/>
    <path d="M23.833,20.055c-1.48,-5.562 -3.742,-6.055 -3.742,-6.055"
          style="fill:none;stroke:#fff;stroke-width:0.5px;"/></svg>